<svg width="66" height="105" viewBox="0 0 66 105" fill="none" xmlns="http://www.w3.org/2000/svg">
<path d="M29.184 104.064C27.904 104.064 26.5387 103.936 25.088 103.68C19.2854 102.485 14.5067 99.7546 10.752 95.4879C7.08271 91.2212 4.35205 86.0159 2.56005 79.8719C0.853378 73.6426 4.50611e-05 67.0719 4.50611e-05 60.1599C4.50611e-05 54.3572 0.853378 48.5546 2.56005 42.7519C4.35205 36.9492 6.78405 31.4879 9.85605 26.3679C12.928 21.2479 16.4694 16.7252 20.48 12.7999C24.576 8.78922 28.928 5.67456 33.536 3.45589C38.2294 1.15189 43.008 -0.000106812 47.872 -0.000106812C52.0534 -0.000106812 55.424 0.853226 57.984 2.55989C60.544 4.18122 62.4214 6.35722 63.6161 9.08789C64.8107 11.7332 65.4081 14.6346 65.4081 17.7919C65.4081 20.8639 64.8534 23.9786 63.744 27.1359C62.72 30.2079 61.2267 33.0666 59.264 35.7119C57.3014 38.3572 54.9547 40.4906 52.224 42.1119C49.4934 43.6479 46.464 44.4159 43.136 44.4159C41.5147 44.4159 39.7227 44.1599 37.76 43.6479C37.0774 43.3919 36.736 43.1359 36.736 42.8799C36.736 42.4532 37.248 42.2399 38.272 42.2399C38.784 42.2399 39.168 42.2826 39.424 42.3679C40.3627 42.6239 41.2587 42.7519 42.112 42.7519C44.5014 42.7519 46.8054 41.9839 49.024 40.4479C51.328 38.9119 53.376 36.9066 55.168 34.4319C56.96 31.9572 58.368 29.2692 59.392 26.3679C60.416 23.3812 60.928 20.4799 60.928 17.6639C60.928 14.0799 59.9467 10.9226 57.984 8.19189C56.0214 5.46123 52.736 3.79723 48.128 3.19989C47.7014 3.11456 47.232 3.07189 46.72 3.07189C46.208 2.98656 45.7387 2.94389 45.312 2.94389C41.216 2.94389 37.2054 4.05323 33.28 6.27189C29.44 8.40523 25.856 11.3919 22.528 15.2319C19.2854 18.9866 16.4267 23.3386 13.952 28.2879C11.4774 33.2372 9.51471 38.4852 8.06404 44.0319C6.69871 49.4932 6.01605 54.9972 6.01605 60.5439C6.01605 67.1999 6.69871 73.5146 8.06404 79.4879C9.42938 85.3759 11.6054 90.3252 14.592 94.3359C17.664 98.3466 21.6747 100.821 26.624 101.76C27.0507 101.845 27.4774 101.888 27.904 101.888C28.3307 101.973 28.7147 102.016 29.056 102.016C33.3227 102.016 36.48 100.011 38.528 95.9999C40.6614 91.9892 41.728 87.0826 41.728 81.2799C41.728 78.2932 41.472 75.2212 40.96 72.0639C38.0587 72.4052 35.1574 73.0026 32.256 73.8559C29.44 74.7092 26.624 75.7332 23.808 76.9279C23.6374 77.0132 23.424 77.0559 23.168 77.0559C22.7414 77.0559 22.4 76.8426 22.144 76.4159C21.9734 75.9892 21.888 75.4772 21.888 74.8799C21.888 74.2826 22.016 73.7279 22.272 73.2159C22.528 72.6186 22.9547 72.2346 23.552 72.0639C26.624 70.8692 29.696 70.0159 32.768 69.5039C35.84 68.9919 38.9547 68.7359 42.112 68.7359C45.5254 68.7359 48.9814 69.0346 52.48 69.6319C56.064 70.2292 59.6907 71.1252 63.36 72.3199C64.8107 72.7466 65.536 73.2586 65.536 73.8559C65.536 74.0266 65.28 74.1119 64.7681 74.1119C64.3414 74.1119 63.488 73.9839 62.208 73.7279C59.8187 72.9599 57.3867 72.4052 54.912 72.0639C52.5227 71.7226 50.1334 71.5519 47.744 71.5519C46.8907 71.5519 46.0374 71.5946 45.184 71.6799C44.3307 71.6799 43.4774 71.7226 42.624 71.8079C44.416 76.5012 45.312 80.9386 45.312 85.1199C45.312 90.7519 43.8187 95.3172 40.832 98.8159C37.8454 102.315 33.9627 104.064 29.184 104.064Z" fill="black"/>
</svg>
